<svg xmlns:xlink="http://www.w3.org/1999/xlink" xmlns:lucid="lucid" xmlns="http://www.w3.org/2000/svg" width="1760"
     height="1360">
  <g transform="translate(0 0)" lucid:page-tab-id="0_0">
    <path d="M0 0h1760v1360H0z" fill="#fff"/>
    <path d="M400 81c0-6.63 5.37-12 12-12h936.17c6.63 0 12 5.37 12 12v39.08c0 6.62-5.37 12-12 12H412c-6.63 0-12-5.38-12-12z"
          stroke="#000" stroke-opacity="0" stroke-width="2" fill="#fff" fill-opacity="0"/>
    <use xlink:href="#a"
         transform="matrix(1,0,0,1,405.00000000000006,73.99999999995924) translate(407.5 32.333333333333336)"/>
    <use xlink:href="#b"
         transform="matrix(1,0,0,1,405.00000000000006,73.99999999995924) translate(487.35185185185185 32.333333333333336)"/>
    <path d="M655.13 144.87c0-6.63 5.37-12 12-12h430c6.63 0 12 5.37 12 12v9.92c0 6.62-5.37 12-12 12h-430c-6.63 0-12-5.38-12-12z"
          stroke="#000" stroke-opacity="0" stroke-width="2" fill="#fff" fill-opacity="0"/>
    <use xlink:href="#c"
         transform="matrix(1,0,0,1,660.1315842073823,137.86936285871693) translate(137.1604938271605 15.11111111111111)"/>
    <use xlink:href="#d"
         transform="matrix(1,0,0,1,660.1315842073823,137.86936285871693) translate(183.74074074074073 15.11111111111111)"/>
    <use xlink:href="#e"
         transform="matrix(1,0,0,1,660.1315842073823,137.86936285871693) translate(202.7530864197531 15.11111111111111)"/>
    <use xlink:href="#f"
         transform="matrix(1,0,0,1,660.1315842073823,137.86936285871693) translate(215.41358024691357 15.11111111111111)"/>
    <use xlink:href="#g"
         transform="matrix(1,0,0,1,660.1315842073823,137.86936285871693) translate(247.34567901234567 15.11111111111111)"/>
    <use xlink:href="#h"
         transform="matrix(1,0,0,1,660.1315842073823,137.86936285871693) translate(273.2716049382716 15.11111111111111)"/>
    <path d="M622.4 124.6h519.57M622.42 124.6h-1.03M1141.94 124.6h1.03" stroke="#b2b2b2" stroke-width="2" fill="none"/>
    <path d="M940 239c0-2.76 2.24-5 5-5h350c2.76 0 5 2.24 5 5v316c0 2.76-2.24 5-5 5H945c-2.76 0-5-2.24-5-5z"
          stroke="#000" fill="#fff"/>
    <path d="M940 271.33h360M940 458.17h360" stroke="#000" fill="none"/>
    <use xlink:href="#i" transform="matrix(1,0,0,1,948,242) translate(149.28395061728395 14.555555555555555)"/>
    <use xlink:href="#j"
         transform="matrix(1,0,0,1,952,279.3333333333333) translate(155.92592592592592 25.055555555555536)"/>
    <use xlink:href="#k"
         transform="matrix(1,0,0,1,952,279.3333333333333) translate(59.53086419753086 46.38888888888887)"/>
    <use xlink:href="#l"
         transform="matrix(1,0,0,1,952,279.3333333333333) translate(74.8395061728395 46.38888888888887)"/>
    <use xlink:href="#m"
         transform="matrix(1,0,0,1,952,279.3333333333333) translate(189.20987654320987 46.38888888888887)"/>
    <use xlink:href="#n"
         transform="matrix(1,0,0,1,952,279.3333333333333) translate(204.5185185185185 46.38888888888887)"/>
    <use xlink:href="#o"
         transform="matrix(1,0,0,1,952,279.3333333333333) translate(33.87654320987653 67.72222222222221)"/>
    <use xlink:href="#p"
         transform="matrix(1,0,0,1,952,279.3333333333333) translate(49.185185185185176 67.72222222222221)"/>
    <use xlink:href="#m"
         transform="matrix(1,0,0,1,952,279.3333333333333) translate(146.81481481481484 67.72222222222221)"/>
    <use xlink:href="#q"
         transform="matrix(1,0,0,1,952,279.3333333333333) translate(162.12345679012347 67.72222222222221)"/>
    <use xlink:href="#r"
         transform="matrix(1,0,0,1,952,279.3333333333333) translate(228.19753086419755 67.72222222222221)"/>
    <use xlink:href="#s"
         transform="matrix(1,0,0,1,952,279.3333333333333) translate(267.65432098765433 67.72222222222221)"/>
    <use xlink:href="#t"
         transform="matrix(1,0,0,1,952,279.3333333333333) translate(70.34567901234567 89.05555555555554)"/>
    <use xlink:href="#m"
         transform="matrix(1,0,0,1,952,279.3333333333333) translate(172.46913580246914 89.05555555555554)"/>
    <use xlink:href="#u"
         transform="matrix(1,0,0,1,952,279.3333333333333) translate(187.77777777777777 89.05555555555554)"/>
    <use xlink:href="#v"
         transform="matrix(1,0,0,1,952,279.3333333333333) translate(231.13580246913583 89.05555555555554)"/>
    <use xlink:href="#o"
         transform="matrix(1,0,0,1,952,279.3333333333333) translate(50.09876543209873 110.38888888888889)"/>
    <use xlink:href="#w"
         transform="matrix(1,0,0,1,952,279.3333333333333) translate(65.40740740740738 110.38888888888889)"/>
    <use xlink:href="#m"
         transform="matrix(1,0,0,1,952,279.3333333333333) translate(177.9012345679012 110.38888888888889)"/>
    <use xlink:href="#x"
         transform="matrix(1,0,0,1,952,279.3333333333333) translate(193.20987654320987 110.38888888888889)"/>
    <use xlink:href="#y"
         transform="matrix(1,0,0,1,952,279.3333333333333) translate(62.19753086419749 131.72222222222223)"/>
    <use xlink:href="#z"
         transform="matrix(1,0,0,1,952,279.3333333333333) translate(254.04938271604942 131.72222222222223)"/>
    <use xlink:href="#k"
         transform="matrix(1,0,0,1,952,279.3333333333333) translate(92.07407407407406 153.05555555555557)"/>
    <use xlink:href="#A"
         transform="matrix(1,0,0,1,952,279.3333333333333) translate(107.38271604938271 153.05555555555557)"/>
    <use xlink:href="#B"
         transform="matrix(1,0,0,1,952,279.3333333333333) translate(233.55555555555554 153.05555555555557)"/>
    <use xlink:href="#o"
         transform="matrix(1,0,0,1,952,466.1666666666667) translate(38.09876543209873 25.22222222222222)"/>
    <use xlink:href="#C"
         transform="matrix(1,0,0,1,952,466.1666666666667) translate(53.407407407407376 25.22222222222222)"/>
    <use xlink:href="#D"
         transform="matrix(1,0,0,1,952,466.1666666666667) translate(85.20987654320987 46.55555555555556)"/>
    <use xlink:href="#E"
         transform="matrix(1,0,0,1,952,466.1666666666667) translate(96.02469135802468 46.55555555555556)"/>
    <use xlink:href="#D"
         transform="matrix(1,0,0,1,952,466.1666666666667) translate(114.79012345679011 67.8888888888889)"/>
    <use xlink:href="#F"
         transform="matrix(1,0,0,1,952,466.1666666666667) translate(125.60493827160494 67.8888888888889)"/>
    <path d="M360 325c0-2.76 2.24-5 5-5h350c2.76 0 5 2.24 5 5v188c0 2.76-2.24 5-5 5H365c-2.76 0-5-2.24-5-5z"
          stroke="#000" fill="#fff"/>
    <path d="M360 357.33h360m-360 101.5h360" stroke="#000" fill="none"/>
    <g>
      <use xlink:href="#G" transform="matrix(1,0,0,1,368,328) translate(111.77777777777777 14.555555555555555)"/>
    </g>
    <g>
      <use xlink:href="#j"
           transform="matrix(1,0,0,1,372,365.3333333333333) translate(155.92592592592592 25.22222222222222)"/>
      <use xlink:href="#k"
           transform="matrix(1,0,0,1,372,365.3333333333333) translate(84.49382716049384 46.55555555555556)"/>
      <use xlink:href="#H"
           transform="matrix(1,0,0,1,372,365.3333333333333) translate(99.80246913580248 46.55555555555556)"/>
      <use xlink:href="#I" transform="matrix(1,0,0,1,372,365.3333333333333) translate(168 67.8888888888889)"/>
    </g>
    <path d="M1120 233v-34.5c0-2.76-2.24-5-5-5H545c-2.76 0-5 2.24-5 5V319" stroke="#000" fill="none"/>
    <path d="M1120.5 233.5h-1v-.5h1zM540.5 319.5h-1v-.5h1z"/>
    <path d="M100 594.25c0-2.77 2.24-5 5-5h350c2.76 0 5 2.23 5 5v188c0 2.76-2.24 5-5 5H105c-2.76 0-5-2.24-5-5z"
          stroke="#000" fill="#fff"/>
    <path d="M100 626.58h360m-360 101.5h360" stroke="#000" fill="none"/>
    <g>
      <use xlink:href="#J"
           transform="matrix(1,0,0,1,108,597.2455875144698) translate(148.79012345679013 14.555555555555555)"/>
    </g>
    <g>
      <use xlink:href="#j"
           transform="matrix(1,0,0,1,112,634.5789208478031) translate(155.92592592592592 25.22222222222222)"/>
      <use xlink:href="#K"
           transform="matrix(1,0,0,1,112,634.5789208478031) translate(133.23456790123456 46.55555555555556)"/>
      <use xlink:href="#L"
           transform="matrix(1,0,0,1,112,634.5789208478031) translate(47.234567901234556 67.8888888888889)"/>
      <use xlink:href="#M"
           transform="matrix(1,0,0,1,112,634.5789208478031) translate(98.44444444444443 67.8888888888889)"/>
      <use xlink:href="#N"
           transform="matrix(1,0,0,1,112,634.5789208478031) translate(131.9753086419753 67.8888888888889)"/>
      <use xlink:href="#O"
           transform="matrix(1,0,0,1,112,634.5789208478031) translate(172.37037037037038 67.8888888888889)"/>
      <use xlink:href="#P"
           transform="matrix(1,0,0,1,112,634.5789208478031) translate(209.85185185185188 67.8888888888889)"/>
    </g>
    <path d="M359 419h-74c-2.76 0-5 2.24-5 5v164.25" stroke="#000" fill="none"/>
    <path d="M359.5 419.5h-.5v-1h.5zM280.5 588.75h-1v-.52h1z"/>
    <path d="M1380 424c0-2.76 2.24-5 5-5h350c2.76 0 5 2.24 5 5v273c0 2.76-2.24 5-5 5h-350c-2.76 0-5-2.24-5-5z"
          stroke="#000" fill="#fff"/>
    <path d="M1380 456.34h360m-360 186.83h360" stroke="#000" fill="none"/>
    <g>
      <use xlink:href="#Q"
           transform="matrix(1,0,0,1,1388,427.0019066643788) translate(150.8395061728395 14.555555555555555)"/>
    </g>
    <g>
      <use xlink:href="#o"
           transform="matrix(1,0,0,1,1392,464.3352399977121) translate(153.45679012345678 25.055555555555536)"/>
      <use xlink:href="#R"
           transform="matrix(1,0,0,1,1392,464.3352399977121) translate(168.76543209876542 25.055555555555536)"/>
      <use xlink:href="#S"
           transform="matrix(1,0,0,1,1392,464.3352399977121) translate(124.88888888888889 46.38888888888887)"/>
      <use xlink:href="#T"
           transform="matrix(1,0,0,1,1392,464.3352399977121) translate(125.35802469135803 67.72222222222221)"/>
      <use xlink:href="#U"
           transform="matrix(1,0,0,1,1392,464.3352399977121) translate(116.49382716049382 89.05555555555554)"/>
      <use xlink:href="#V"
           transform="matrix(1,0,0,1,1392,464.3352399977121) translate(110.54320987654319 110.38888888888889)"/>
      <use xlink:href="#W"
           transform="matrix(1,0,0,1,1392,464.3352399977121) translate(139.4074074074074 131.72222222222223)"/>
      <use xlink:href="#X" transform="matrix(1,0,0,1,1392,464.3352399977121) translate(132 153.05555555555557)"/>
    </g>
    <path d="M600 621.37c0-2.76 2.24-5 5-5h350c2.76 0 5 2.24 5 5v230c0 2.77-2.24 5-5 5H605c-2.76 0-5-2.23-5-5z"
          stroke="#000" fill="#fff"/>
    <path d="M600 653.7h360M600 797.88h360" stroke="#000" fill="none"/>
    <g>
      <use xlink:href="#Y"
           transform="matrix(1,0,0,1,608,624.3742908587468) translate(98.5185185185185 14.555555555555555)"/>
    </g>
    <g>
      <use xlink:href="#Z"
           transform="matrix(1,0,0,1,612,661.7076241920802) translate(127.80246913580247 25.38888888888888)"/>
      <use xlink:href="#aa"
           transform="matrix(1,0,0,1,612,661.7076241920802) translate(120.41975308641975 46.722222222222214)"/>
      <use xlink:href="#ab"
           transform="matrix(1,0,0,1,612,661.7076241920802) translate(99.0864197530864 68.05555555555556)"/>
      <use xlink:href="#ac"
           transform="matrix(1,0,0,1,612,661.7076241920802) translate(99.7037037037037 89.38888888888889)"/>
      <use xlink:href="#ad"
           transform="matrix(1,0,0,1,612,661.7076241920802) translate(70.09876543209876 110.72222222222223)"/>
      <use xlink:href="#ae"
           transform="matrix(1,0,0,1,612,661.7076241920802) translate(170.2469135802469 110.72222222222223)"/>
    </g>
    <path d="M980 773.5c0-2.77 2.24-5 5-5h350c2.76 0 5 2.23 5 5v230c0 2.75-2.24 5-5 5H985c-2.76 0-5-2.25-5-5z"
          stroke="#000" fill="#fff"/>
    <path d="M980 805.82h360M980 950h360" stroke="#000" fill="none"/>
    <g>
      <use xlink:href="#af"
           transform="matrix(1,0,0,1,988,776.4892683646324) translate(153.28395061728395 14.555555555555555)"/>
    </g>
    <g>
      <use xlink:href="#o"
           transform="matrix(1,0,0,1,992,813.8226016979658) translate(153.45679012345678 25.38888888888888)"/>
      <use xlink:href="#R"
           transform="matrix(1,0,0,1,992,813.8226016979658) translate(168.76543209876542 25.38888888888888)"/>
      <use xlink:href="#ag" transform="matrix(1,0,0,1,992,813.8226016979658) translate(168 46.722222222222214)"/>
      <use xlink:href="#S"
           transform="matrix(1,0,0,1,992,813.8226016979658) translate(124.88888888888889 68.05555555555556)"/>
      <use xlink:href="#T"
           transform="matrix(1,0,0,1,992,813.8226016979658) translate(125.35802469135803 89.38888888888889)"/>
      <use xlink:href="#ah"
           transform="matrix(1,0,0,1,992,813.8226016979658) translate(141.65432098765433 110.72222222222223)"/>
    </g>
    <path d="M1301 397h254c2.76 0 5 2.24 5 5v16" stroke="#000" fill="none"/>
    <path d="M1301 397.5h-.5v-1h.5zM1560.5 418.5h-1v-.5h1z"/>
    <path d="M939 397H785c-2.76 0-5 2.24-5 5v213.37" stroke="#000" fill="none"/>
    <path d="M939.5 397.5h-.5v-1h.5zM780.5 615.87h-1v-.5h1z"/>
    <defs>
      <path fill="#b2b2b2"
            d="M182-130c37 4 62 22 62 59C244 23 116-4 24 0v-248c84 5 203-23 205 63 0 31-19 50-47 55zM76-148c40-3 101 13 101-30 0-44-60-28-101-31v61zm0 110c48-3 116 14 116-37 0-48-69-32-116-35v72"
            id="ai"/>
      <path fill="#b2b2b2" d="M25 0v-261h50V0H25" id="aj"/>
      <path fill="#b2b2b2"
            d="M133-34C117-15 103 5 69 4 32 3 11-16 11-54c-1-60 55-63 116-61 1-26-3-47-28-47-18 1-26 9-28 27l-52-2c7-38 36-58 82-57s74 22 75 68l1 82c-1 14 12 18 25 15v27c-30 8-71 5-69-32zm-48 3c29 0 43-24 42-57-32 0-66-3-65 30 0 17 8 27 23 27"
            id="ak"/>
      <path fill="#b2b2b2"
            d="M135-194c87-1 58 113 63 194h-50c-7-57 23-157-34-157-59 0-34 97-39 157H25l-1-190h47c2 12-1 28 3 38 12-26 28-41 61-42"
            id="al"/>
      <path fill="#b2b2b2" d="M147 0L96-86 75-71V0H25v-261h50v150l67-79h53l-66 74L201 0h-54" id="am"/>
      <g id="a">
        <use transform="matrix(0.07407407407407408,0,0,0.07407407407407408,0,0)" xlink:href="#ai"/>
        <use transform="matrix(0.07407407407407408,0,0,0.07407407407407408,19.185185185185187,0)" xlink:href="#aj"/>
        <use transform="matrix(0.07407407407407408,0,0,0.07407407407407408,26.592592592592595,0)" xlink:href="#ak"/>
        <use transform="matrix(0.07407407407407408,0,0,0.07407407407407408,41.40740740740741,0)" xlink:href="#al"/>
        <use transform="matrix(0.07407407407407408,0,0,0.07407407407407408,57.62962962962964,0)" xlink:href="#am"/>
      </g>
      <path fill="#b2b2b2" d="M24 0v-248h195v40H76v63h132v40H76v65h150V0H24" id="an"/>
      <path fill="#b2b2b2"
            d="M240-174c0 40-23 61-54 70L253 0h-59l-57-94H76V0H24v-248c93 4 217-23 216 74zM76-134c48-2 112 12 112-38 0-48-66-32-112-35v73"
            id="ao"/>
      <path fill="#b2b2b2"
            d="M24-248c120-7 223 5 221 122C244-46 201 0 124 0H24v-248zM76-40c74 7 117-18 117-86 0-67-45-88-117-82v168"
            id="ap"/>
      <g id="b">
        <use transform="matrix(0.07407407407407408,0,0,0.07407407407407408,0,0)" xlink:href="#an"/>
        <use transform="matrix(0.07407407407407408,0,0,0.07407407407407408,17.77777777777778,0)" xlink:href="#ao"/>
        <use transform="matrix(0.07407407407407408,0,0,0.07407407407407408,36.96296296296296,0)" xlink:href="#ap"/>
      </g>
      <path fill="#b2b2b2" d="M190 0L58-211 59 0H30v-248h39L202-35l-2-213h31V0h-41" id="aq"/>
      <path fill="#b2b2b2"
            d="M141-36C126-15 110 5 73 4 37 3 15-17 15-53c-1-64 63-63 125-63 3-35-9-54-41-54-24 1-41 7-42 31l-33-3c5-37 33-52 76-52 45 0 72 20 72 64v82c-1 20 7 32 28 27v20c-31 9-61-2-59-35zM48-53c0 20 12 33 32 33 41-3 63-29 60-74-43 2-92-5-92 41"
            id="ar"/>
      <path fill="#b2b2b2"
            d="M84 4C-5 8 30-112 23-190h32v120c0 31 7 50 39 49 72-2 45-101 50-169h31l1 190h-30c-1-10 1-25-2-33-11 22-28 36-60 37"
            id="as"/>
      <path fill="#b2b2b2" d="M114-163C36-179 61-72 57 0H25l-1-190h30c1 12-1 29 2 39 6-27 23-49 58-41v29" id="at"/>
      <g id="c">
        <use transform="matrix(0.04320987654320988,0,0,0.04320987654320988,0,0)" xlink:href="#aq"/>
        <use transform="matrix(0.04320987654320988,0,0,0.04320987654320988,11.19135802469136,0)" xlink:href="#ar"/>
        <use transform="matrix(0.04320987654320988,0,0,0.04320987654320988,19.833333333333336,0)" xlink:href="#as"/>
        <use transform="matrix(0.04320987654320988,0,0,0.04320987654320988,28.47530864197531,0)" xlink:href="#at"/>
        <use transform="matrix(0.04320987654320988,0,0,0.04320987654320988,33.617283950617285,0)" xlink:href="#ar"/>
      </g>
      <path fill="#b2b2b2" d="M30 0v-248h187v28H63v79h144v27H63v87h162V0H30" id="au"/>
      <use transform="matrix(0.04320987654320988,0,0,0.04320987654320988,0,0)" xlink:href="#au" id="d"/>
      <path fill="#b2b2b2" d="M32 76v-337h29V76H32" id="av"/>
      <use transform="matrix(0.04320987654320988,0,0,0.04320987654320988,0,0)" xlink:href="#av" id="e"/>
      <path fill="#b2b2b2"
            d="M153-248C145-148 188 4 80 4 36 3 13-21 6-62l32-5c4 25 16 42 43 43 27 0 39-20 39-49v-147H72v-28h81"
            id="aw"/>
      <path fill="#b2b2b2" d="M24 0v-261h32V0H24" id="ax"/>
      <path fill="#b2b2b2" d="M179-190L93 31C79 59 56 82 12 73V49c39 6 53-20 64-50L1-190h34L92-34l54-156h33" id="ay"/>
      <g id="f">
        <use transform="matrix(0.04320987654320988,0,0,0.04320987654320988,0,0)" xlink:href="#aw"/>
        <use transform="matrix(0.04320987654320988,0,0,0.04320987654320988,7.777777777777779,0)" xlink:href="#as"/>
        <use transform="matrix(0.04320987654320988,0,0,0.04320987654320988,16.419753086419753,0)" xlink:href="#ax"/>
        <use transform="matrix(0.04320987654320988,0,0,0.04320987654320988,19.833333333333336,0)" xlink:href="#ay"/>
      </g>
      <path fill="#b2b2b2"
            d="M101-251c82-7 93 87 43 132L82-64C71-53 59-42 53-27h129V0H18c2-99 128-94 128-182 0-28-16-43-45-43s-46 15-49 41l-32-3c6-41 34-60 81-64"
            id="az"/>
      <path fill="#b2b2b2"
            d="M126-127c33 6 58 20 58 59 0 88-139 92-164 29-3-8-5-16-6-25l32-3c6 27 21 44 54 44 32 0 52-15 52-46 0-38-36-46-79-43v-28c39 1 72-4 72-42 0-27-17-43-46-43-28 0-47 15-49 41l-32-3c6-42 35-63 81-64 48-1 79 21 79 65 0 36-21 52-52 59"
            id="aA"/>
      <path fill="#b2b2b2" d="M68-38c1 34 0 65-14 84H32c9-13 17-26 17-46H33v-38h35" id="aB"/>
      <g id="g">
        <use transform="matrix(0.04320987654320988,0,0,0.04320987654320988,0,0)" xlink:href="#az"/>
        <use transform="matrix(0.04320987654320988,0,0,0.04320987654320988,8.641975308641976,0)" xlink:href="#aA"/>
        <use transform="matrix(0.04320987654320988,0,0,0.04320987654320988,17.283950617283953,0)" xlink:href="#aB"/>
      </g>
      <path fill="#b2b2b2"
            d="M101-251c68 0 85 55 85 127S166 4 100 4C33 4 14-52 14-124c0-73 17-127 87-127zm-1 229c47 0 54-49 54-102s-4-102-53-102c-51 0-55 48-55 102 0 53 5 102 54 102"
            id="aC"/>
      <path fill="#b2b2b2" d="M27 0v-27h64v-190l-56 39v-29l58-41h29v221h61V0H27" id="aD"/>
      <path fill="#b2b2b2"
            d="M99-251c64 0 84 50 84 122C183-37 130 33 47-8c-14-7-20-23-25-40l30-5c6 39 69 39 84 7 9-19 16-44 16-74-10 22-31 35-62 35-49 0-73-33-73-83 0-54 28-83 82-83zm-1 141c31-1 51-18 51-49 0-36-14-67-51-67-34 0-49 23-49 58 0 34 15 58 49 58"
            id="aE"/>
      <g id="h">
        <use transform="matrix(0.04320987654320988,0,0,0.04320987654320988,0,0)" xlink:href="#az"/>
        <use transform="matrix(0.04320987654320988,0,0,0.04320987654320988,8.641975308641976,0)" xlink:href="#aC"/>
        <use transform="matrix(0.04320987654320988,0,0,0.04320987654320988,17.283950617283953,0)" xlink:href="#aD"/>
        <use transform="matrix(0.04320987654320988,0,0,0.04320987654320988,25.925925925925927,0)" xlink:href="#aE"/>
      </g>
      <path d="M30 0v-248h187v28H63v79h144v27H63v87h162V0H30" id="aF"/>
      <path d="M108 0H70L1-190h34L89-25l56-165h34" id="aG"/>
      <path d="M100-194c63 0 86 42 84 106H49c0 40 14 67 53 68 26 1 43-12 49-29l28 8c-11 28-37 45-77 45C44 4 14-33 15-96c1-61 26-98 85-98zm52 81c6-60-76-77-97-28-3 7-6 17-6 28h103"
            id="aH"/>
      <path d="M117-194c89-4 53 116 60 194h-32v-121c0-31-8-49-39-48C34-167 62-67 57 0H25l-1-190h30c1 10-1 24 2 32 11-22 29-35 61-36"
            id="aI"/>
      <path d="M59-47c-2 24 18 29 38 22v24C64 9 27 4 27-40v-127H5v-23h24l9-43h21v43h35v23H59v120" id="aJ"/>
      <g id="i">
        <use transform="matrix(0.04938271604938272,0,0,0.04938271604938272,0,0)" xlink:href="#aF"/>
        <use transform="matrix(0.04938271604938272,0,0,0.04938271604938272,11.851851851851853,0)" xlink:href="#aG"/>
        <use transform="matrix(0.04938271604938272,0,0,0.04938271604938272,20.74074074074074,0)" xlink:href="#aH"/>
        <use transform="matrix(0.04938271604938272,0,0,0.04938271604938272,30.617283950617285,0)" xlink:href="#aI"/>
        <use transform="matrix(0.04938271604938272,0,0,0.04938271604938272,40.49382716049383,0)" xlink:href="#aJ"/>
      </g>
      <path d="M118-107v75H92v-75H18v-26h74v-75h26v75h74v26h-74" id="aK"/>
      <path d="M24-231v-30h32v30H24zM24 0v-190h32V0H24" id="aL"/>
      <path d="M85-194c31 0 48 13 60 33l-1-100h32l1 261h-30c-2-10 0-23-3-31C134-8 116 4 85 4 32 4 16-35 15-94c0-66 23-100 70-100zm9 24c-40 0-46 34-46 75 0 40 6 74 45 74 42 0 51-32 51-76 0-42-9-74-50-73"
            id="aM"/>
      <g id="j">
        <use transform="matrix(0.04938271604938272,0,0,0.04938271604938272,0,0)" xlink:href="#aK"/>
        <use transform="matrix(0.04938271604938272,0,0,0.04938271604938272,10.370370370370372,0)" xlink:href="#aL"/>
        <use transform="matrix(0.04938271604938272,0,0,0.04938271604938272,14.27160493827161,0)" xlink:href="#aM"/>
      </g>
      <use transform="matrix(0.04938271604938272,0,0,0.04938271604938272,0,0)" xlink:href="#aK" id="k"/>
      <path d="M24 0v-261h32V0H24" id="aN"/>
      <path d="M100-194c62-1 85 37 85 99 1 63-27 99-86 99S16-35 15-95c0-66 28-99 85-99zM99-20c44 1 53-31 53-75 0-43-8-75-51-75s-53 32-53 75 10 74 51 75"
            id="aO"/>
      <path d="M96-169c-40 0-48 33-48 73s9 75 48 75c24 0 41-14 43-38l32 2c-6 37-31 61-74 61-59 0-76-41-82-99-10-93 101-131 147-64 4 7 5 14 7 22l-32 3c-4-21-16-35-41-35"
            id="aP"/>
      <path d="M141-36C126-15 110 5 73 4 37 3 15-17 15-53c-1-64 63-63 125-63 3-35-9-54-41-54-24 1-41 7-42 31l-33-3c5-37 33-52 76-52 45 0 72 20 72 64v82c-1 20 7 32 28 27v20c-31 9-61-2-59-35zM48-53c0 20 12 33 32 33 41-3 63-29 60-74-43 2-92-5-92 41"
            id="aQ"/>
      <path d="M33-154v-36h34v36H33zM33 0v-36h34V0H33" id="aR"/>
      <path d="M135-143c-3-34-86-38-87 0 15 53 115 12 119 90S17 21 10-45l28-5c4 36 97 45 98 0-10-56-113-15-118-90-4-57 82-63 122-42 12 7 21 19 24 35"
            id="aS"/>
      <path d="M114-163C36-179 61-72 57 0H25l-1-190h30c1 12-1 29 2 39 6-27 23-49 58-41v29" id="aT"/>
      <path d="M177-190C167-65 218 103 67 71c-23-6-38-20-44-43l32-5c15 47 100 32 89-28v-30C133-14 115 1 83 1 29 1 15-40 15-95c0-56 16-97 71-98 29-1 48 16 59 35 1-10 0-23 2-32h30zM94-22c36 0 50-32 50-73 0-42-14-75-50-75-39 0-46 34-46 75s6 73 46 73"
            id="aU"/>
      <g id="l">
        <use transform="matrix(0.04938271604938272,0,0,0.04938271604938272,0,0)" xlink:href="#aN"/>
        <use transform="matrix(0.04938271604938272,0,0,0.04938271604938272,3.901234567901235,0)" xlink:href="#aO"/>
        <use transform="matrix(0.04938271604938272,0,0,0.04938271604938272,13.777777777777779,0)" xlink:href="#aP"/>
        <use transform="matrix(0.04938271604938272,0,0,0.04938271604938272,22.666666666666668,0)" xlink:href="#aQ"/>
        <use transform="matrix(0.04938271604938272,0,0,0.04938271604938272,32.543209876543216,0)" xlink:href="#aJ"/>
        <use transform="matrix(0.04938271604938272,0,0,0.04938271604938272,37.48148148148149,0)" xlink:href="#aL"/>
        <use transform="matrix(0.04938271604938272,0,0,0.04938271604938272,41.38271604938272,0)" xlink:href="#aO"/>
        <use transform="matrix(0.04938271604938272,0,0,0.04938271604938272,51.25925925925927,0)" xlink:href="#aI"/>
        <use transform="matrix(0.04938271604938272,0,0,0.04938271604938272,61.13580246913581,0)" xlink:href="#aR"/>
        <use transform="matrix(0.04938271604938272,0,0,0.04938271604938272,66.07407407407408,0)" xlink:href="#aS"/>
        <use transform="matrix(0.04938271604938272,0,0,0.04938271604938272,74.96296296296296,0)" xlink:href="#aJ"/>
        <use transform="matrix(0.04938271604938272,0,0,0.04938271604938272,79.90123456790124,0)" xlink:href="#aT"/>
        <use transform="matrix(0.04938271604938272,0,0,0.04938271604938272,85.77777777777779,0)" xlink:href="#aL"/>
        <use transform="matrix(0.04938271604938272,0,0,0.04938271604938272,89.67901234567903,0)" xlink:href="#aI"/>
        <use transform="matrix(0.04938271604938272,0,0,0.04938271604938272,99.55555555555557,0)" xlink:href="#aU"/>
      </g>
      <path d="M18-150v-26h174v26H18zm0 90v-26h174v26H18" id="aV"/>
      <use transform="matrix(0.04938271604938272,0,0,0.04938271604938272,0,0)" xlink:href="#aV" id="m"/>
      <path d="M212-179c-10-28-35-45-73-45-59 0-87 40-87 99 0 60 29 101 89 101 43 0 62-24 78-52l27 14C228-24 195 4 139 4 59 4 22-46 18-125c-6-104 99-153 187-111 19 9 31 26 39 46"
            id="aW"/>
      <g id="n">
        <use transform="matrix(0.04938271604938272,0,0,0.04938271604938272,0,0)" xlink:href="#aW"/>
        <use transform="matrix(0.04938271604938272,0,0,0.04938271604938272,12.790123456790125,0)" xlink:href="#aO"/>
        <use transform="matrix(0.04938271604938272,0,0,0.04938271604938272,22.66666666666667,0)" xlink:href="#aN"/>
        <use transform="matrix(0.04938271604938272,0,0,0.04938271604938272,26.567901234567902,0)" xlink:href="#aO"/>
        <use transform="matrix(0.04938271604938272,0,0,0.04938271604938272,36.44444444444445,0)" xlink:href="#aT"/>
        <use transform="matrix(0.04938271604938272,0,0,0.04938271604938272,42.320987654320994,0)" xlink:href="#aQ"/>
        <use transform="matrix(0.04938271604938272,0,0,0.04938271604938272,52.19753086419754,0)" xlink:href="#aM"/>
        <use transform="matrix(0.04938271604938272,0,0,0.04938271604938272,62.074074074074076,0)" xlink:href="#aO"/>
      </g>
      <use transform="matrix(0.04938271604938272,0,0,0.04938271604938272,0,0)" xlink:href="#aK" id="o"/>
      <path d="M210-169c-67 3-38 105-44 169h-31v-121c0-29-5-50-35-48C34-165 62-65 56 0H25l-1-190h30c1 10-1 24 2 32 10-44 99-50 107 0 11-21 27-35 58-36 85-2 47 119 55 194h-31v-121c0-29-5-49-35-48"
            id="aX"/>
      <g id="p">
        <use transform="matrix(0.04938271604938272,0,0,0.04938271604938272,0,0)" xlink:href="#aI"/>
        <use transform="matrix(0.04938271604938272,0,0,0.04938271604938272,9.876543209876544,0)" xlink:href="#aQ"/>
        <use transform="matrix(0.04938271604938272,0,0,0.04938271604938272,19.75308641975309,0)" xlink:href="#aX"/>
        <use transform="matrix(0.04938271604938272,0,0,0.04938271604938272,34.51851851851852,0)" xlink:href="#aH"/>
        <use transform="matrix(0.04938271604938272,0,0,0.04938271604938272,44.39506172839506,0)" xlink:href="#aR"/>
        <use transform="matrix(0.04938271604938272,0,0,0.04938271604938272,49.333333333333336,0)" xlink:href="#aS"/>
        <use transform="matrix(0.04938271604938272,0,0,0.04938271604938272,58.22222222222223,0)" xlink:href="#aJ"/>
        <use transform="matrix(0.04938271604938272,0,0,0.04938271604938272,63.1604938271605,0)" xlink:href="#aT"/>
        <use transform="matrix(0.04938271604938272,0,0,0.04938271604938272,69.03703703703704,0)" xlink:href="#aL"/>
        <use transform="matrix(0.04938271604938272,0,0,0.04938271604938272,72.93827160493828,0)" xlink:href="#aI"/>
        <use transform="matrix(0.04938271604938272,0,0,0.04938271604938272,82.81481481481482,0)" xlink:href="#aU"/>
      </g>
      <path d="M160-131c35 5 61 23 61 61C221 17 115-2 30 0v-248c76 3 177-17 177 60 0 33-19 50-47 57zm-97-11c50-1 110 9 110-42 0-47-63-36-110-37v79zm0 115c55-2 124 14 124-45 0-56-70-42-124-44v89"
            id="aY"/>
      <path d="M84 4C-5 8 30-112 23-190h32v120c0 31 7 50 39 49 72-2 45-101 50-169h31l1 190h-30c-1-10 1-25-2-33-11 22-28 36-60 37"
            id="aZ"/>
      <g id="q">
        <use transform="matrix(0.04938271604938272,0,0,0.04938271604938272,0,0)" xlink:href="#aY"/>
        <use transform="matrix(0.04938271604938272,0,0,0.04938271604938272,11.851851851851853,0)" xlink:href="#aO"/>
        <use transform="matrix(0.04938271604938272,0,0,0.04938271604938272,21.7283950617284,0)" xlink:href="#aZ"/>
        <use transform="matrix(0.04938271604938272,0,0,0.04938271604938272,31.60493827160494,0)" xlink:href="#aN"/>
        <use transform="matrix(0.04938271604938272,0,0,0.04938271604938272,35.50617283950618,0)" xlink:href="#aM"/>
        <use transform="matrix(0.04938271604938272,0,0,0.04938271604938272,45.38271604938272,0)" xlink:href="#aH"/>
        <use transform="matrix(0.04938271604938272,0,0,0.04938271604938272,55.25925925925927,0)" xlink:href="#aT"/>
      </g>
      <path d="M143 0L79-87 56-68V0H24v-261h32v163l83-92h37l-77 82L181 0h-38" id="ba"/>
      <g id="r">
        <use transform="matrix(0.04938271604938272,0,0,0.04938271604938272,0,0)" xlink:href="#aY"/>
        <use transform="matrix(0.04938271604938272,0,0,0.04938271604938272,11.851851851851853,0)" xlink:href="#aL"/>
        <use transform="matrix(0.04938271604938272,0,0,0.04938271604938272,15.753086419753087,0)" xlink:href="#ba"/>
        <use transform="matrix(0.04938271604938272,0,0,0.04938271604938272,24.641975308641978,0)" xlink:href="#aH"/>
      </g>
      <path d="M127-220V0H93v-220H8v-28h204v28h-85" id="bb"/>
      <g id="s">
        <use transform="matrix(0.04938271604938272,0,0,0.04938271604938272,0,0)" xlink:href="#bb"/>
        <use transform="matrix(0.04938271604938272,0,0,0.04938271604938272,8.839506172839506,0)" xlink:href="#aO"/>
        <use transform="matrix(0.04938271604938272,0,0,0.04938271604938272,18.71604938271605,0)" xlink:href="#aZ"/>
        <use transform="matrix(0.04938271604938272,0,0,0.04938271604938272,28.592592592592595,0)" xlink:href="#aT"/>
      </g>
      <path d="M179-190L93 31C79 59 56 82 12 73V49c39 6 53-20 64-50L1-190h34L92-34l54-156h33" id="bc"/>
      <path d="M115-194c55 1 70 41 70 98S169 2 115 4C84 4 66-9 55-30l1 105H24l-1-265h31l2 30c10-21 28-34 59-34zm-8 174c40 0 45-34 45-75s-6-73-45-74c-42 0-51 32-51 76 0 43 10 73 51 73"
            id="bd"/>
      <g id="t">
        <use transform="matrix(0.04938271604938272,0,0,0.04938271604938272,0,0)" xlink:href="#aK"/>
        <use transform="matrix(0.04938271604938272,0,0,0.04938271604938272,10.370370370370372,0)" xlink:href="#aJ"/>
        <use transform="matrix(0.04938271604938272,0,0,0.04938271604938272,15.308641975308642,0)" xlink:href="#bc"/>
        <use transform="matrix(0.04938271604938272,0,0,0.04938271604938272,24.19753086419753,0)" xlink:href="#bd"/>
        <use transform="matrix(0.04938271604938272,0,0,0.04938271604938272,34.074074074074076,0)" xlink:href="#aH"/>
        <use transform="matrix(0.04938271604938272,0,0,0.04938271604938272,43.95061728395062,0)" xlink:href="#aR"/>
        <use transform="matrix(0.04938271604938272,0,0,0.04938271604938272,48.88888888888889,0)" xlink:href="#aS"/>
        <use transform="matrix(0.04938271604938272,0,0,0.04938271604938272,57.777777777777786,0)" xlink:href="#aJ"/>
        <use transform="matrix(0.04938271604938272,0,0,0.04938271604938272,62.71604938271606,0)" xlink:href="#aT"/>
        <use transform="matrix(0.04938271604938272,0,0,0.04938271604938272,68.5925925925926,0)" xlink:href="#aL"/>
        <use transform="matrix(0.04938271604938272,0,0,0.04938271604938272,72.49382716049384,0)" xlink:href="#aI"/>
        <use transform="matrix(0.04938271604938272,0,0,0.04938271604938272,82.37037037037038,0)" xlink:href="#aU"/>
        <use transform="matrix(0.04938271604938272,0,0,0.04938271604938272,92.24691358024693,0)" xlink:href="#aR"/>
      </g>
      <path d="M115-194c53 0 69 39 70 98 0 66-23 100-70 100C84 3 66-7 56-30L54 0H23l1-261h32v101c10-23 28-34 59-34zm-8 174c40 0 45-34 45-75 0-40-5-75-45-74-42 0-51 32-51 76 0 43 10 73 51 73"
            id="be"/>
      <g id="u">
        <use transform="matrix(0.04938271604938272,0,0,0.04938271604938272,0,0)" xlink:href="#be"/>
        <use transform="matrix(0.04938271604938272,0,0,0.04938271604938272,9.876543209876544,0)" xlink:href="#aL"/>
        <use transform="matrix(0.04938271604938272,0,0,0.04938271604938272,13.777777777777779,0)" xlink:href="#ba"/>
        <use transform="matrix(0.04938271604938272,0,0,0.04938271604938272,22.666666666666668,0)" xlink:href="#aH"/>
        <use transform="matrix(0.04938271604938272,0,0,0.04938271604938272,32.543209876543216,0)" xlink:href="#aT"/>
      </g>
      <g id="v">
        <use transform="matrix(0.04938271604938272,0,0,0.04938271604938272,0,0)" xlink:href="#aT"/>
        <use transform="matrix(0.04938271604938272,0,0,0.04938271604938272,5.8765432098765435,0)" xlink:href="#aQ"/>
        <use transform="matrix(0.04938271604938272,0,0,0.04938271604938272,15.753086419753087,0)" xlink:href="#aP"/>
        <use transform="matrix(0.04938271604938272,0,0,0.04938271604938272,24.641975308641978,0)" xlink:href="#aH"/>
      </g>
      <g id="w">
        <use transform="matrix(0.04938271604938272,0,0,0.04938271604938272,0,0)" xlink:href="#aM"/>
        <use transform="matrix(0.04938271604938272,0,0,0.04938271604938272,9.876543209876544,0)" xlink:href="#aQ"/>
        <use transform="matrix(0.04938271604938272,0,0,0.04938271604938272,19.75308641975309,0)" xlink:href="#aJ"/>
        <use transform="matrix(0.04938271604938272,0,0,0.04938271604938272,24.69135802469136,0)" xlink:href="#aH"/>
        <use transform="matrix(0.04938271604938272,0,0,0.04938271604938272,34.567901234567906,0)" xlink:href="#aR"/>
        <use transform="matrix(0.04938271604938272,0,0,0.04938271604938272,39.50617283950618,0)" xlink:href="#aM"/>
        <use transform="matrix(0.04938271604938272,0,0,0.04938271604938272,49.38271604938272,0)" xlink:href="#aQ"/>
        <use transform="matrix(0.04938271604938272,0,0,0.04938271604938272,59.25925925925927,0)" xlink:href="#aJ"/>
        <use transform="matrix(0.04938271604938272,0,0,0.04938271604938272,64.19753086419755,0)" xlink:href="#aH"/>
        <use transform="matrix(0.04938271604938272,0,0,0.04938271604938272,74.07407407407409,0)" xlink:href="#aJ"/>
        <use transform="matrix(0.04938271604938272,0,0,0.04938271604938272,79.01234567901236,0)" xlink:href="#aL"/>
        <use transform="matrix(0.04938271604938272,0,0,0.04938271604938272,82.9135802469136,0)" xlink:href="#aX"/>
        <use transform="matrix(0.04938271604938272,0,0,0.04938271604938272,97.67901234567903,0)" xlink:href="#aH"/>
      </g>
      <path d="M101-251c82-7 93 87 43 132L82-64C71-53 59-42 53-27h129V0H18c2-99 128-94 128-182 0-28-16-43-45-43s-46 15-49 41l-32-3c6-41 34-60 81-64"
            id="bf"/>
      <path d="M101-251c68 0 85 55 85 127S166 4 100 4C33 4 14-52 14-124c0-73 17-127 87-127zm-1 229c47 0 54-49 54-102s-4-102-53-102c-51 0-55 48-55 102 0 53 5 102 54 102"
            id="bg"/>
      <path d="M27 0v-27h64v-190l-56 39v-29l58-41h29v221h61V0H27" id="bh"/>
      <g id="x">
        <use transform="matrix(0.04938271604938272,0,0,0.04938271604938272,0,0)" xlink:href="#bf"/>
        <use transform="matrix(0.04938271604938272,0,0,0.04938271604938272,9.876543209876544,0)" xlink:href="#bg"/>
        <use transform="matrix(0.04938271604938272,0,0,0.04938271604938272,19.75308641975309,0)" xlink:href="#bf"/>
        <use transform="matrix(0.04938271604938272,0,0,0.04938271604938272,29.629629629629633,0)" xlink:href="#bg"/>
        <use transform="matrix(0.04938271604938272,0,0,0.04938271604938272,39.50617283950618,0)" xlink:href="#aQ"/>
        <use transform="matrix(0.04938271604938272,0,0,0.04938271604938272,49.38271604938272,0)" xlink:href="#bd"/>
        <use transform="matrix(0.04938271604938272,0,0,0.04938271604938272,59.25925925925927,0)" xlink:href="#aT"/>
        <use transform="matrix(0.04938271604938272,0,0,0.04938271604938272,65.13580246913581,0)" xlink:href="#aL"/>
        <use transform="matrix(0.04938271604938272,0,0,0.04938271604938272,69.03703703703705,0)" xlink:href="#aN"/>
        <use transform="matrix(0.04938271604938272,0,0,0.04938271604938272,72.9382716049383,0)" xlink:href="#bg"/>
        <use transform="matrix(0.04938271604938272,0,0,0.04938271604938272,82.81481481481484,0)" xlink:href="#bh"/>
      </g>
      <path d="M140-251c81 0 123 46 123 126C263-46 219 4 140 4 59 4 17-45 17-125s42-126 123-126zm0 227c63 0 89-41 89-101s-29-99-89-99c-61 0-89 39-89 99S79-25 140-24"
            id="bi"/>
      <path d="M101-234c-31-9-42 10-38 44h38v23H63V0H32v-167H5v-23h27c-7-52 17-82 69-68v24" id="bj"/>
      <path d="M30-248c87 1 191-15 191 75 0 78-77 80-158 76V0H30v-248zm33 125c57 0 124 11 124-50 0-59-68-47-124-48v98"
            id="bk"/>
      <g id="y">
        <use transform="matrix(0.04938271604938272,0,0,0.04938271604938272,0,0)" xlink:href="#aK"/>
        <use transform="matrix(0.04938271604938272,0,0,0.04938271604938272,10.370370370370372,0)" xlink:href="#aI"/>
        <use transform="matrix(0.04938271604938272,0,0,0.04938271604938272,20.24691358024692,0)" xlink:href="#aZ"/>
        <use transform="matrix(0.04938271604938272,0,0,0.04938271604938272,30.123456790123466,0)" xlink:href="#aX"/>
        <use transform="matrix(0.04938271604938272,0,0,0.04938271604938272,44.8888888888889,0)" xlink:href="#be"/>
        <use transform="matrix(0.04938271604938272,0,0,0.04938271604938272,54.76543209876545,0)" xlink:href="#aH"/>
        <use transform="matrix(0.04938271604938272,0,0,0.04938271604938272,64.64197530864199,0)" xlink:href="#aT"/>
        <use transform="matrix(0.04938271604938272,0,0,0.04938271604938272,70.51851851851853,0)" xlink:href="#bi"/>
        <use transform="matrix(0.04938271604938272,0,0,0.04938271604938272,84.3456790123457,0)" xlink:href="#bj"/>
        <use transform="matrix(0.04938271604938272,0,0,0.04938271604938272,89.28395061728398,0)" xlink:href="#bk"/>
        <use transform="matrix(0.04938271604938272,0,0,0.04938271604938272,101.13580246913584,0)" xlink:href="#aQ"/>
        <use transform="matrix(0.04938271604938272,0,0,0.04938271604938272,111.01234567901238,0)" xlink:href="#aT"/>
        <use transform="matrix(0.04938271604938272,0,0,0.04938271604938272,116.88888888888893,0)" xlink:href="#aJ"/>
        <use transform="matrix(0.04938271604938272,0,0,0.04938271604938272,121.8271604938272,0)" xlink:href="#aL"/>
        <use transform="matrix(0.04938271604938272,0,0,0.04938271604938272,125.72839506172843,0)" xlink:href="#aP"/>
        <use transform="matrix(0.04938271604938272,0,0,0.04938271604938272,134.61728395061732,0)" xlink:href="#aL"/>
        <use transform="matrix(0.04938271604938272,0,0,0.04938271604938272,138.51851851851856,0)" xlink:href="#bd"/>
        <use transform="matrix(0.04938271604938272,0,0,0.04938271604938272,148.3950617283951,0)" xlink:href="#aQ"/>
        <use transform="matrix(0.04938271604938272,0,0,0.04938271604938272,158.27160493827165,0)" xlink:href="#aI"/>
        <use transform="matrix(0.04938271604938272,0,0,0.04938271604938272,168.1481481481482,0)" xlink:href="#aJ"/>
        <use transform="matrix(0.04938271604938272,0,0,0.04938271604938272,173.0864197530865,0)" xlink:href="#aS"/>
        <use transform="matrix(0.04938271604938272,0,0,0.04938271604938272,181.97530864197537,0)" xlink:href="#aR"/>
      </g>
      <g id="z">
        <use transform="matrix(0.04938271604938272,0,0,0.04938271604938272,0,0)" xlink:href="#bf"/>
        <use transform="matrix(0.04938271604938272,0,0,0.04938271604938272,9.876543209876544,0)" xlink:href="#bg"/>
      </g>
      <g id="A">
        <use transform="matrix(0.04938271604938272,0,0,0.04938271604938272,0,0)" xlink:href="#aS"/>
        <use transform="matrix(0.04938271604938272,0,0,0.04938271604938272,8.88888888888889,0)" xlink:href="#aZ"/>
        <use transform="matrix(0.04938271604938272,0,0,0.04938271604938272,18.765432098765434,0)" xlink:href="#aX"/>
        <use transform="matrix(0.04938271604938272,0,0,0.04938271604938272,33.53086419753087,0)" xlink:href="#aX"/>
        <use transform="matrix(0.04938271604938272,0,0,0.04938271604938272,48.296296296296305,0)" xlink:href="#aQ"/>
        <use transform="matrix(0.04938271604938272,0,0,0.04938271604938272,58.17283950617284,0)" xlink:href="#aT"/>
        <use transform="matrix(0.04938271604938272,0,0,0.04938271604938272,64.0493827160494,0)" xlink:href="#bc"/>
        <use transform="matrix(0.04938271604938272,0,0,0.04938271604938272,72.93827160493828,0)" xlink:href="#aR"/>
        <use transform="matrix(0.04938271604938272,0,0,0.04938271604938272,77.87654320987656,0)" xlink:href="#aS"/>
        <use transform="matrix(0.04938271604938272,0,0,0.04938271604938272,86.76543209876544,0)" xlink:href="#aJ"/>
        <use transform="matrix(0.04938271604938272,0,0,0.04938271604938272,91.70370370370372,0)" xlink:href="#aT"/>
        <use transform="matrix(0.04938271604938272,0,0,0.04938271604938272,97.58024691358027,0)" xlink:href="#aL"/>
        <use transform="matrix(0.04938271604938272,0,0,0.04938271604938272,101.48148148148151,0)" xlink:href="#aI"/>
        <use transform="matrix(0.04938271604938272,0,0,0.04938271604938272,111.35802469135805,0)" xlink:href="#aU"/>
      </g>
      <use transform="matrix(0.04938271604938272,0,0,0.04938271604938272,0,0)" xlink:href="#aV" id="B"/>
      <path d="M87 75C49 33 22-17 22-94c0-76 28-126 65-167h31c-38 41-64 92-64 168S80 34 118 75H87" id="bl"/>
      <path d="M33-261c38 41 65 92 65 168S71 34 33 75H2C39 34 66-17 66-93S39-220 2-261h31" id="bm"/>
      <g id="C">
        <use transform="matrix(0.04938271604938272,0,0,0.04938271604938272,0,0)" xlink:href="#aO"/>
        <use transform="matrix(0.04938271604938272,0,0,0.04938271604938272,9.876543209876544,0)" xlink:href="#bd"/>
        <use transform="matrix(0.04938271604938272,0,0,0.04938271604938272,19.75308641975309,0)" xlink:href="#aH"/>
        <use transform="matrix(0.04938271604938272,0,0,0.04938271604938272,29.629629629629633,0)" xlink:href="#aT"/>
        <use transform="matrix(0.04938271604938272,0,0,0.04938271604938272,35.50617283950618,0)" xlink:href="#aQ"/>
        <use transform="matrix(0.04938271604938272,0,0,0.04938271604938272,45.38271604938272,0)" xlink:href="#aJ"/>
        <use transform="matrix(0.04938271604938272,0,0,0.04938271604938272,50.320987654320994,0)" xlink:href="#aL"/>
        <use transform="matrix(0.04938271604938272,0,0,0.04938271604938272,54.22222222222223,0)" xlink:href="#aO"/>
        <use transform="matrix(0.04938271604938272,0,0,0.04938271604938272,64.09876543209877,0)" xlink:href="#aI"/>
        <use transform="matrix(0.04938271604938272,0,0,0.04938271604938272,73.97530864197532,0)" xlink:href="#bh"/>
        <use transform="matrix(0.04938271604938272,0,0,0.04938271604938272,83.85185185185186,0)" xlink:href="#bl"/>
        <use transform="matrix(0.04938271604938272,0,0,0.04938271604938272,89.7283950617284,0)" xlink:href="#bd"/>
        <use transform="matrix(0.04938271604938272,0,0,0.04938271604938272,99.60493827160495,0)" xlink:href="#aQ"/>
        <use transform="matrix(0.04938271604938272,0,0,0.04938271604938272,109.4814814814815,0)" xlink:href="#aT"/>
        <use transform="matrix(0.04938271604938272,0,0,0.04938271604938272,115.35802469135804,0)" xlink:href="#aQ"/>
        <use transform="matrix(0.04938271604938272,0,0,0.04938271604938272,125.23456790123458,0)" xlink:href="#aX"/>
        <use transform="matrix(0.04938271604938272,0,0,0.04938271604938272,140.00000000000003,0)" xlink:href="#aS"/>
        <use transform="matrix(0.04938271604938272,0,0,0.04938271604938272,148.8888888888889,0)" xlink:href="#bm"/>
        <use transform="matrix(0.04938271604938272,0,0,0.04938271604938272,154.76543209876544,0)" xlink:href="#aR"/>
        <use transform="matrix(0.04938271604938272,0,0,0.04938271604938272,159.70370370370372,0)" xlink:href="#aT"/>
        <use transform="matrix(0.04938271604938272,0,0,0.04938271604938272,165.58024691358025,0)" xlink:href="#aH"/>
        <use transform="matrix(0.04938271604938272,0,0,0.04938271604938272,175.4567901234568,0)" xlink:href="#aJ"/>
        <use transform="matrix(0.04938271604938272,0,0,0.04938271604938272,180.3950617283951,0)" xlink:href="#aZ"/>
        <use transform="matrix(0.04938271604938272,0,0,0.04938271604938272,190.27160493827165,0)" xlink:href="#aT"/>
        <use transform="matrix(0.04938271604938272,0,0,0.04938271604938272,196.14814814814818,0)" xlink:href="#aI"/>
        <use transform="matrix(0.04938271604938272,0,0,0.04938271604938272,206.0246913580247,0)" xlink:href="#bb"/>
        <use transform="matrix(0.04938271604938272,0,0,0.04938271604938272,215.85185185185188,0)" xlink:href="#bc"/>
        <use transform="matrix(0.04938271604938272,0,0,0.04938271604938272,224.74074074074076,0)" xlink:href="#bd"/>
        <use transform="matrix(0.04938271604938272,0,0,0.04938271604938272,234.6172839506173,0)" xlink:href="#aH"/>
      </g>
      <path d="M16-82v-28h88v28H16" id="bn"/>
      <use transform="matrix(0.04938271604938272,0,0,0.04938271604938272,0,0)" xlink:href="#bn" id="D"/>
      <g id="E">
        <use transform="matrix(0.04938271604938272,0,0,0.04938271604938272,0,0)" xlink:href="#aO"/>
        <use transform="matrix(0.04938271604938272,0,0,0.04938271604938272,9.876543209876544,0)" xlink:href="#bd"/>
        <use transform="matrix(0.04938271604938272,0,0,0.04938271604938272,19.75308641975309,0)" xlink:href="#aH"/>
        <use transform="matrix(0.04938271604938272,0,0,0.04938271604938272,29.629629629629633,0)" xlink:href="#aT"/>
        <use transform="matrix(0.04938271604938272,0,0,0.04938271604938272,35.50617283950618,0)" xlink:href="#aQ"/>
        <use transform="matrix(0.04938271604938272,0,0,0.04938271604938272,45.38271604938272,0)" xlink:href="#aJ"/>
        <use transform="matrix(0.04938271604938272,0,0,0.04938271604938272,50.320987654320994,0)" xlink:href="#aL"/>
        <use transform="matrix(0.04938271604938272,0,0,0.04938271604938272,54.22222222222223,0)" xlink:href="#aO"/>
        <use transform="matrix(0.04938271604938272,0,0,0.04938271604938272,64.09876543209877,0)" xlink:href="#aI"/>
        <use transform="matrix(0.04938271604938272,0,0,0.04938271604938272,73.97530864197532,0)" xlink:href="#bf"/>
        <use transform="matrix(0.04938271604938272,0,0,0.04938271604938272,83.85185185185186,0)" xlink:href="#bl"/>
        <use transform="matrix(0.04938271604938272,0,0,0.04938271604938272,89.7283950617284,0)" xlink:href="#bd"/>
        <use transform="matrix(0.04938271604938272,0,0,0.04938271604938272,99.60493827160495,0)" xlink:href="#aQ"/>
        <use transform="matrix(0.04938271604938272,0,0,0.04938271604938272,109.4814814814815,0)" xlink:href="#aT"/>
        <use transform="matrix(0.04938271604938272,0,0,0.04938271604938272,115.35802469135804,0)" xlink:href="#aQ"/>
        <use transform="matrix(0.04938271604938272,0,0,0.04938271604938272,125.23456790123458,0)" xlink:href="#aX"/>
        <use transform="matrix(0.04938271604938272,0,0,0.04938271604938272,140.00000000000003,0)" xlink:href="#aS"/>
        <use transform="matrix(0.04938271604938272,0,0,0.04938271604938272,148.8888888888889,0)" xlink:href="#bm"/>
      </g>
      <path d="M126-127c33 6 58 20 58 59 0 88-139 92-164 29-3-8-5-16-6-25l32-3c6 27 21 44 54 44 32 0 52-15 52-46 0-38-36-46-79-43v-28c39 1 72-4 72-42 0-27-17-43-46-43-28 0-47 15-49 41l-32-3c6-42 35-63 81-64 48-1 79 21 79 65 0 36-21 52-52 59"
            id="bo"/>
      <g id="F">
        <use transform="matrix(0.04938271604938272,0,0,0.04938271604938272,0,0)" xlink:href="#aO"/>
        <use transform="matrix(0.04938271604938272,0,0,0.04938271604938272,9.876543209876544,0)" xlink:href="#bd"/>
        <use transform="matrix(0.04938271604938272,0,0,0.04938271604938272,19.75308641975309,0)" xlink:href="#aH"/>
        <use transform="matrix(0.04938271604938272,0,0,0.04938271604938272,29.629629629629633,0)" xlink:href="#aT"/>
        <use transform="matrix(0.04938271604938272,0,0,0.04938271604938272,35.50617283950618,0)" xlink:href="#aQ"/>
        <use transform="matrix(0.04938271604938272,0,0,0.04938271604938272,45.38271604938272,0)" xlink:href="#aJ"/>
        <use transform="matrix(0.04938271604938272,0,0,0.04938271604938272,50.320987654320994,0)" xlink:href="#aL"/>
        <use transform="matrix(0.04938271604938272,0,0,0.04938271604938272,54.22222222222223,0)" xlink:href="#aO"/>
        <use transform="matrix(0.04938271604938272,0,0,0.04938271604938272,64.09876543209877,0)" xlink:href="#aI"/>
        <use transform="matrix(0.04938271604938272,0,0,0.04938271604938272,73.97530864197532,0)" xlink:href="#bo"/>
        <use transform="matrix(0.04938271604938272,0,0,0.04938271604938272,83.85185185185186,0)" xlink:href="#bl"/>
        <use transform="matrix(0.04938271604938272,0,0,0.04938271604938272,89.7283950617284,0)" xlink:href="#bm"/>
      </g>
      <path d="M106-169C34-169 62-67 57 0H25v-261h32l-1 103c12-21 28-36 61-36 89 0 53 116 60 194h-32v-121c2-32-8-49-39-48"
            id="bp"/>
      <g id="G">
        <use transform="matrix(0.04938271604938272,0,0,0.04938271604938272,0,0)" xlink:href="#aF"/>
        <use transform="matrix(0.04938271604938272,0,0,0.04938271604938272,11.851851851851853,0)" xlink:href="#aG"/>
        <use transform="matrix(0.04938271604938272,0,0,0.04938271604938272,20.74074074074074,0)" xlink:href="#aH"/>
        <use transform="matrix(0.04938271604938272,0,0,0.04938271604938272,30.617283950617285,0)" xlink:href="#aI"/>
        <use transform="matrix(0.04938271604938272,0,0,0.04938271604938272,40.49382716049383,0)" xlink:href="#aJ"/>
        <use transform="matrix(0.04938271604938272,0,0,0.04938271604938272,45.4320987654321,0)" xlink:href="#bk"/>
        <use transform="matrix(0.04938271604938272,0,0,0.04938271604938272,57.283950617283956,0)" xlink:href="#bp"/>
        <use transform="matrix(0.04938271604938272,0,0,0.04938271604938272,67.16049382716051,0)" xlink:href="#aO"/>
        <use transform="matrix(0.04938271604938272,0,0,0.04938271604938272,77.03703703703705,0)" xlink:href="#aJ"/>
        <use transform="matrix(0.04938271604938272,0,0,0.04938271604938272,81.97530864197532,0)" xlink:href="#aO"/>
        <use transform="matrix(0.04938271604938272,0,0,0.04938271604938272,91.85185185185186,0)" xlink:href="#bb"/>
        <use transform="matrix(0.04938271604938272,0,0,0.04938271604938272,100.69135802469137,0)" xlink:href="#aQ"/>
        <use transform="matrix(0.04938271604938272,0,0,0.04938271604938272,110.56790123456791,0)" xlink:href="#aU"/>
      </g>
      <path d="M190 0L58-211 59 0H30v-248h39L202-35l-2-213h31V0h-41" id="bq"/>
      <g id="H">
        <use transform="matrix(0.04938271604938272,0,0,0.04938271604938272,0,0)" xlink:href="#bj"/>
        <use transform="matrix(0.04938271604938272,0,0,0.04938271604938272,4.938271604938272,0)" xlink:href="#aN"/>
        <use transform="matrix(0.04938271604938272,0,0,0.04938271604938272,8.839506172839506,0)" xlink:href="#aL"/>
        <use transform="matrix(0.04938271604938272,0,0,0.04938271604938272,12.740740740740742,0)" xlink:href="#ba"/>
        <use transform="matrix(0.04938271604938272,0,0,0.04938271604938272,21.62962962962963,0)" xlink:href="#aT"/>
        <use transform="matrix(0.04938271604938272,0,0,0.04938271604938272,27.506172839506174,0)" xlink:href="#bb"/>
        <use transform="matrix(0.04938271604938272,0,0,0.04938271604938272,36.34567901234568,0)" xlink:href="#aQ"/>
        <use transform="matrix(0.04938271604938272,0,0,0.04938271604938272,46.22222222222222,0)" xlink:href="#aU"/>
        <use transform="matrix(0.04938271604938272,0,0,0.04938271604938272,56.09876543209877,0)" xlink:href="#bq"/>
        <use transform="matrix(0.04938271604938272,0,0,0.04938271604938272,68.88888888888889,0)" xlink:href="#aQ"/>
        <use transform="matrix(0.04938271604938272,0,0,0.04938271604938272,78.76543209876543,0)" xlink:href="#aX"/>
        <use transform="matrix(0.04938271604938272,0,0,0.04938271604938272,93.53086419753086,0)" xlink:href="#aH"/>
        <use transform="matrix(0.04938271604938272,0,0,0.04938271604938272,103.40740740740739,0)" xlink:href="#aR"/>
        <use transform="matrix(0.04938271604938272,0,0,0.04938271604938272,108.34567901234567,0)" xlink:href="#aS"/>
        <use transform="matrix(0.04938271604938272,0,0,0.04938271604938272,117.23456790123456,0)" xlink:href="#aJ"/>
        <use transform="matrix(0.04938271604938272,0,0,0.04938271604938272,122.17283950617282,0)" xlink:href="#aT"/>
        <use transform="matrix(0.04938271604938272,0,0,0.04938271604938272,128.04938271604937,0)" xlink:href="#aL"/>
        <use transform="matrix(0.04938271604938272,0,0,0.04938271604938272,131.9506172839506,0)" xlink:href="#aI"/>
        <use transform="matrix(0.04938271604938272,0,0,0.04938271604938272,141.82716049382714,0)" xlink:href="#aU"/>
      </g>
      <g id="J">
        <use transform="matrix(0.04938271604938272,0,0,0.04938271604938272,0,0)" xlink:href="#bk"/>
        <use transform="matrix(0.04938271604938272,0,0,0.04938271604938272,11.851851851851853,0)" xlink:href="#bp"/>
        <use transform="matrix(0.04938271604938272,0,0,0.04938271604938272,21.7283950617284,0)" xlink:href="#aO"/>
        <use transform="matrix(0.04938271604938272,0,0,0.04938271604938272,31.60493827160494,0)" xlink:href="#aJ"/>
        <use transform="matrix(0.04938271604938272,0,0,0.04938271604938272,36.543209876543216,0)" xlink:href="#aO"/>
      </g>
      <g id="K">
        <use transform="matrix(0.04938271604938272,0,0,0.04938271604938272,0,0)" xlink:href="#aK"/>
        <use transform="matrix(0.04938271604938272,0,0,0.04938271604938272,10.370370370370372,0)" xlink:href="#bj"/>
        <use transform="matrix(0.04938271604938272,0,0,0.04938271604938272,15.308641975308642,0)" xlink:href="#aZ"/>
        <use transform="matrix(0.04938271604938272,0,0,0.04938271604938272,25.18518518518519,0)" xlink:href="#aN"/>
        <use transform="matrix(0.04938271604938272,0,0,0.04938271604938272,29.08641975308642,0)" xlink:href="#aN"/>
        <use transform="matrix(0.04938271604938272,0,0,0.04938271604938272,32.98765432098766,0)" xlink:href="#bk"/>
        <use transform="matrix(0.04938271604938272,0,0,0.04938271604938272,44.83950617283951,0)" xlink:href="#aQ"/>
        <use transform="matrix(0.04938271604938272,0,0,0.04938271604938272,54.71604938271605,0)" xlink:href="#aJ"/>
        <use transform="matrix(0.04938271604938272,0,0,0.04938271604938272,59.65432098765432,0)" xlink:href="#bp"/>
      </g>
      <g id="L">
        <use transform="matrix(0.04938271604938272,0,0,0.04938271604938272,0,0)" xlink:href="#bl"/>
        <use transform="matrix(0.04938271604938272,0,0,0.04938271604938272,5.8765432098765435,0)" xlink:href="#aX"/>
        <use transform="matrix(0.04938271604938272,0,0,0.04938271604938272,20.641975308641978,0)" xlink:href="#aO"/>
        <use transform="matrix(0.04938271604938272,0,0,0.04938271604938272,30.518518518518523,0)" xlink:href="#aT"/>
        <use transform="matrix(0.04938271604938272,0,0,0.04938271604938272,36.39506172839506,0)" xlink:href="#aH"/>
      </g>
      <g id="M">
        <use transform="matrix(0.04938271604938272,0,0,0.04938271604938272,0,0)" xlink:href="#aL"/>
        <use transform="matrix(0.04938271604938272,0,0,0.04938271604938272,3.901234567901235,0)" xlink:href="#aI"/>
        <use transform="matrix(0.04938271604938272,0,0,0.04938271604938272,13.777777777777779,0)" xlink:href="#bj"/>
        <use transform="matrix(0.04938271604938272,0,0,0.04938271604938272,18.71604938271605,0)" xlink:href="#aO"/>
      </g>
      <g id="N">
        <use transform="matrix(0.04938271604938272,0,0,0.04938271604938272,0,0)" xlink:href="#bj"/>
        <use transform="matrix(0.04938271604938272,0,0,0.04938271604938272,4.938271604938272,0)" xlink:href="#aT"/>
        <use transform="matrix(0.04938271604938272,0,0,0.04938271604938272,10.814814814814817,0)" xlink:href="#aO"/>
        <use transform="matrix(0.04938271604938272,0,0,0.04938271604938272,20.69135802469136,0)" xlink:href="#aX"/>
      </g>
      <path d="M24-231v-30h32v30H24zM-9 49c24 4 33-6 33-30v-209h32V24c2 40-23 58-65 49V49" id="br"/>
      <g id="O">
        <use transform="matrix(0.04938271604938272,0,0,0.04938271604938272,0,0)" xlink:href="#br"/>
        <use transform="matrix(0.04938271604938272,0,0,0.04938271604938272,3.901234567901235,0)" xlink:href="#aS"/>
        <use transform="matrix(0.04938271604938272,0,0,0.04938271604938272,12.790123456790125,0)" xlink:href="#aO"/>
        <use transform="matrix(0.04938271604938272,0,0,0.04938271604938272,22.666666666666668,0)" xlink:href="#aI"/>
      </g>
      <g id="P">
        <use transform="matrix(0.04938271604938272,0,0,0.04938271604938272,0,0)" xlink:href="#aT"/>
        <use transform="matrix(0.04938271604938272,0,0,0.04938271604938272,5.8765432098765435,0)" xlink:href="#aH"/>
        <use transform="matrix(0.04938271604938272,0,0,0.04938271604938272,15.753086419753087,0)" xlink:href="#aS"/>
        <use transform="matrix(0.04938271604938272,0,0,0.04938271604938272,24.641975308641978,0)" xlink:href="#bd"/>
        <use transform="matrix(0.04938271604938272,0,0,0.04938271604938272,34.51851851851852,0)" xlink:href="#aO"/>
        <use transform="matrix(0.04938271604938272,0,0,0.04938271604938272,44.39506172839506,0)" xlink:href="#aI"/>
        <use transform="matrix(0.04938271604938272,0,0,0.04938271604938272,54.27160493827161,0)" xlink:href="#aS"/>
        <use transform="matrix(0.04938271604938272,0,0,0.04938271604938272,63.1604938271605,0)" xlink:href="#aH"/>
        <use transform="matrix(0.04938271604938272,0,0,0.04938271604938272,73.03703703703704,0)" xlink:href="#bm"/>
      </g>
      <path d="M233-177c-1 41-23 64-60 70L243 0h-38l-65-103H63V0H30v-248c88 3 205-21 203 71zM63-129c60-2 137 13 137-47 0-61-80-42-137-45v92"
            id="bs"/>
      <g id="Q">
        <use transform="matrix(0.04938271604938272,0,0,0.04938271604938272,0,0)" xlink:href="#bs"/>
        <use transform="matrix(0.04938271604938272,0,0,0.04938271604938272,12.790123456790125,0)" xlink:href="#aL"/>
        <use transform="matrix(0.04938271604938272,0,0,0.04938271604938272,16.69135802469136,0)" xlink:href="#aM"/>
        <use transform="matrix(0.04938271604938272,0,0,0.04938271604938272,26.567901234567902,0)" xlink:href="#aH"/>
        <use transform="matrix(0.04938271604938272,0,0,0.04938271604938272,36.44444444444445,0)" xlink:href="#aT"/>
      </g>
      <g id="R">
        <use transform="matrix(0.04938271604938272,0,0,0.04938271604938272,0,0)" xlink:href="#aL"/>
        <use transform="matrix(0.04938271604938272,0,0,0.04938271604938272,3.901234567901235,0)" xlink:href="#aM"/>
      </g>
      <g id="S">
        <use transform="matrix(0.04938271604938272,0,0,0.04938271604938272,0,0)" xlink:href="#aK"/>
        <use transform="matrix(0.04938271604938272,0,0,0.04938271604938272,10.370370370370372,0)" xlink:href="#bj"/>
        <use transform="matrix(0.04938271604938272,0,0,0.04938271604938272,15.308641975308642,0)" xlink:href="#aL"/>
        <use transform="matrix(0.04938271604938272,0,0,0.04938271604938272,19.20987654320988,0)" xlink:href="#aT"/>
        <use transform="matrix(0.04938271604938272,0,0,0.04938271604938272,25.086419753086425,0)" xlink:href="#aS"/>
        <use transform="matrix(0.04938271604938272,0,0,0.04938271604938272,33.97530864197532,0)" xlink:href="#aJ"/>
        <use transform="matrix(0.04938271604938272,0,0,0.04938271604938272,38.91358024691359,0)" xlink:href="#bq"/>
        <use transform="matrix(0.04938271604938272,0,0,0.04938271604938272,51.70370370370372,0)" xlink:href="#aQ"/>
        <use transform="matrix(0.04938271604938272,0,0,0.04938271604938272,61.58024691358026,0)" xlink:href="#aX"/>
        <use transform="matrix(0.04938271604938272,0,0,0.04938271604938272,76.3456790123457,0)" xlink:href="#aH"/>
      </g>
      <g id="T">
        <use transform="matrix(0.04938271604938272,0,0,0.04938271604938272,0,0)" xlink:href="#aK"/>
        <use transform="matrix(0.04938271604938272,0,0,0.04938271604938272,10.370370370370372,0)" xlink:href="#aN"/>
        <use transform="matrix(0.04938271604938272,0,0,0.04938271604938272,14.27160493827161,0)" xlink:href="#aQ"/>
        <use transform="matrix(0.04938271604938272,0,0,0.04938271604938272,24.148148148148152,0)" xlink:href="#aS"/>
        <use transform="matrix(0.04938271604938272,0,0,0.04938271604938272,33.03703703703704,0)" xlink:href="#aJ"/>
        <use transform="matrix(0.04938271604938272,0,0,0.04938271604938272,37.97530864197531,0)" xlink:href="#bq"/>
        <use transform="matrix(0.04938271604938272,0,0,0.04938271604938272,50.76543209876544,0)" xlink:href="#aQ"/>
        <use transform="matrix(0.04938271604938272,0,0,0.04938271604938272,60.64197530864198,0)" xlink:href="#aX"/>
        <use transform="matrix(0.04938271604938272,0,0,0.04938271604938272,75.40740740740742,0)" xlink:href="#aH"/>
      </g>
      <g id="U">
        <use transform="matrix(0.04938271604938272,0,0,0.04938271604938272,0,0)" xlink:href="#aK"/>
        <use transform="matrix(0.04938271604938272,0,0,0.04938271604938272,10.370370370370372,0)" xlink:href="#aP"/>
        <use transform="matrix(0.04938271604938272,0,0,0.04938271604938272,19.25925925925926,0)" xlink:href="#aL"/>
        <use transform="matrix(0.04938271604938272,0,0,0.04938271604938272,23.160493827160494,0)" xlink:href="#aJ"/>
        <use transform="matrix(0.04938271604938272,0,0,0.04938271604938272,28.09876543209877,0)" xlink:href="#bc"/>
        <use transform="matrix(0.04938271604938272,0,0,0.04938271604938272,36.98765432098766,0)" xlink:href="#bi"/>
        <use transform="matrix(0.04938271604938272,0,0,0.04938271604938272,50.81481481481482,0)" xlink:href="#bj"/>
        <use transform="matrix(0.04938271604938272,0,0,0.04938271604938272,55.75308641975309,0)" xlink:href="#bi"/>
        <use transform="matrix(0.04938271604938272,0,0,0.04938271604938272,69.58024691358025,0)" xlink:href="#aT"/>
        <use transform="matrix(0.04938271604938272,0,0,0.04938271604938272,75.4567901234568,0)" xlink:href="#aL"/>
        <use transform="matrix(0.04938271604938272,0,0,0.04938271604938272,79.35802469135804,0)" xlink:href="#aU"/>
        <use transform="matrix(0.04938271604938272,0,0,0.04938271604938272,89.23456790123458,0)" xlink:href="#aL"/>
        <use transform="matrix(0.04938271604938272,0,0,0.04938271604938272,93.13580246913583,0)" xlink:href="#aI"/>
      </g>
      <g id="V">
        <use transform="matrix(0.04938271604938272,0,0,0.04938271604938272,0,0)" xlink:href="#aK"/>
        <use transform="matrix(0.04938271604938272,0,0,0.04938271604938272,10.370370370370372,0)" xlink:href="#aS"/>
        <use transform="matrix(0.04938271604938272,0,0,0.04938271604938272,19.25925925925926,0)" xlink:href="#aJ"/>
        <use transform="matrix(0.04938271604938272,0,0,0.04938271604938272,24.19753086419753,0)" xlink:href="#aQ"/>
        <use transform="matrix(0.04938271604938272,0,0,0.04938271604938272,34.074074074074076,0)" xlink:href="#aJ"/>
        <use transform="matrix(0.04938271604938272,0,0,0.04938271604938272,39.01234567901235,0)" xlink:href="#aH"/>
        <use transform="matrix(0.04938271604938272,0,0,0.04938271604938272,48.88888888888889,0)" xlink:href="#bi"/>
        <use transform="matrix(0.04938271604938272,0,0,0.04938271604938272,62.71604938271606,0)" xlink:href="#bj"/>
        <use transform="matrix(0.04938271604938272,0,0,0.04938271604938272,67.65432098765433,0)" xlink:href="#bi"/>
        <use transform="matrix(0.04938271604938272,0,0,0.04938271604938272,81.4814814814815,0)" xlink:href="#aT"/>
        <use transform="matrix(0.04938271604938272,0,0,0.04938271604938272,87.35802469135804,0)" xlink:href="#aL"/>
        <use transform="matrix(0.04938271604938272,0,0,0.04938271604938272,91.25925925925928,0)" xlink:href="#aU"/>
        <use transform="matrix(0.04938271604938272,0,0,0.04938271604938272,101.13580246913584,0)" xlink:href="#aL"/>
        <use transform="matrix(0.04938271604938272,0,0,0.04938271604938272,105.03703703703707,0)" xlink:href="#aI"/>
      </g>
      <g id="W">
        <use transform="matrix(0.04938271604938272,0,0,0.04938271604938272,0,0)" xlink:href="#aN"/>
        <use transform="matrix(0.04938271604938272,0,0,0.04938271604938272,3.901234567901235,0)" xlink:href="#aQ"/>
        <use transform="matrix(0.04938271604938272,0,0,0.04938271604938272,13.777777777777779,0)" xlink:href="#aJ"/>
        <use transform="matrix(0.04938271604938272,0,0,0.04938271604938272,18.71604938271605,0)" xlink:href="#aL"/>
        <use transform="matrix(0.04938271604938272,0,0,0.04938271604938272,22.617283950617285,0)" xlink:href="#aJ"/>
        <use transform="matrix(0.04938271604938272,0,0,0.04938271604938272,27.555555555555557,0)" xlink:href="#aZ"/>
        <use transform="matrix(0.04938271604938272,0,0,0.04938271604938272,37.4320987654321,0)" xlink:href="#aM"/>
        <use transform="matrix(0.04938271604938272,0,0,0.04938271604938272,47.308641975308646,0)" xlink:href="#aH"/>
      </g>
      <g id="X">
        <use transform="matrix(0.04938271604938272,0,0,0.04938271604938272,0,0)" xlink:href="#aN"/>
        <use transform="matrix(0.04938271604938272,0,0,0.04938271604938272,3.901234567901235,0)" xlink:href="#aO"/>
        <use transform="matrix(0.04938271604938272,0,0,0.04938271604938272,13.777777777777779,0)" xlink:href="#aI"/>
        <use transform="matrix(0.04938271604938272,0,0,0.04938271604938272,23.654320987654323,0)" xlink:href="#aU"/>
        <use transform="matrix(0.04938271604938272,0,0,0.04938271604938272,33.53086419753087,0)" xlink:href="#aL"/>
        <use transform="matrix(0.04938271604938272,0,0,0.04938271604938272,37.4320987654321,0)" xlink:href="#aJ"/>
        <use transform="matrix(0.04938271604938272,0,0,0.04938271604938272,42.370370370370374,0)" xlink:href="#aZ"/>
        <use transform="matrix(0.04938271604938272,0,0,0.04938271604938272,52.24691358024692,0)" xlink:href="#aM"/>
        <use transform="matrix(0.04938271604938272,0,0,0.04938271604938272,62.12345679012346,0)" xlink:href="#aH"/>
      </g>
      <path d="M185-189c-5-48-123-54-124 2 14 75 158 14 163 119 3 78-121 87-175 55-17-10-28-26-33-46l33-7c5 56 141 63 141-1 0-78-155-14-162-118-5-82 145-84 179-34 5 7 8 16 11 25"
            id="bt"/>
      <g id="Y">
        <use transform="matrix(0.04938271604938272,0,0,0.04938271604938272,0,0)" xlink:href="#bt"/>
        <use transform="matrix(0.04938271604938272,0,0,0.04938271604938272,11.851851851851853,0)" xlink:href="#aN"/>
        <use transform="matrix(0.04938271604938272,0,0,0.04938271604938272,15.753086419753087,0)" xlink:href="#aO"/>
        <use transform="matrix(0.04938271604938272,0,0,0.04938271604938272,25.629629629629633,0)" xlink:href="#aU"/>
        <use transform="matrix(0.04938271604938272,0,0,0.04938271604938272,35.50617283950618,0)" xlink:href="#aQ"/>
        <use transform="matrix(0.04938271604938272,0,0,0.04938271604938272,45.38271604938272,0)" xlink:href="#aI"/>
        <use transform="matrix(0.04938271604938272,0,0,0.04938271604938272,55.25925925925927,0)" xlink:href="#bt"/>
        <use transform="matrix(0.04938271604938272,0,0,0.04938271604938272,67.11111111111111,0)" xlink:href="#aZ"/>
        <use transform="matrix(0.04938271604938272,0,0,0.04938271604938272,76.98765432098766,0)" xlink:href="#be"/>
        <use transform="matrix(0.04938271604938272,0,0,0.04938271604938272,86.8641975308642,0)" xlink:href="#aX"/>
        <use transform="matrix(0.04938271604938272,0,0,0.04938271604938272,101.62962962962963,0)" xlink:href="#aL"/>
        <use transform="matrix(0.04938271604938272,0,0,0.04938271604938272,105.53086419753087,0)" xlink:href="#aS"/>
        <use transform="matrix(0.04938271604938272,0,0,0.04938271604938272,114.41975308641976,0)" xlink:href="#aS"/>
        <use transform="matrix(0.04938271604938272,0,0,0.04938271604938272,123.30864197530865,0)" xlink:href="#aL"/>
        <use transform="matrix(0.04938271604938272,0,0,0.04938271604938272,127.20987654320989,0)" xlink:href="#aO"/>
        <use transform="matrix(0.04938271604938272,0,0,0.04938271604938272,137.08641975308643,0)" xlink:href="#aI"/>
      </g>
      <path d="M33 0v-248h34V0H33" id="bu"/>
      <path d="M30-248c118-7 216 8 213 122C240-48 200 0 122 0H30v-248zM63-27c89 8 146-16 146-99s-60-101-146-95v194"
            id="bv"/>
      <g id="Z">
        <use transform="matrix(0.04938271604938272,0,0,0.04938271604938272,0,0)" xlink:href="#aK"/>
        <use transform="matrix(0.04938271604938272,0,0,0.04938271604938272,10.370370370370372,0)" xlink:href="#aS"/>
        <use transform="matrix(0.04938271604938272,0,0,0.04938271604938272,19.25925925925926,0)" xlink:href="#aO"/>
        <use transform="matrix(0.04938271604938272,0,0,0.04938271604938272,29.135802469135804,0)" xlink:href="#aN"/>
        <use transform="matrix(0.04938271604938272,0,0,0.04938271604938272,33.03703703703704,0)" xlink:href="#aU"/>
        <use transform="matrix(0.04938271604938272,0,0,0.04938271604938272,42.91358024691358,0)" xlink:href="#aQ"/>
        <use transform="matrix(0.04938271604938272,0,0,0.04938271604938272,52.79012345679013,0)" xlink:href="#aI"/>
        <use transform="matrix(0.04938271604938272,0,0,0.04938271604938272,62.66666666666667,0)" xlink:href="#bu"/>
        <use transform="matrix(0.04938271604938272,0,0,0.04938271604938272,67.60493827160494,0)" xlink:href="#bv"/>
      </g>
      <path d="M-5 72V49h209v23H-5" id="bw"/>
      <path d="M63-220v92h138v28H63V0H30v-248h175v28H63" id="bx"/>
      <path d="M194 0L95-120 63-95V0H30v-248h33v124l119-124h40L117-140 236 0h-42" id="by"/>
      <g id="aa">
        <use transform="matrix(0.04938271604938272,0,0,0.04938271604938272,0,0)" xlink:href="#aK"/>
        <use transform="matrix(0.04938271604938272,0,0,0.04938271604938272,10.370370370370372,0)" xlink:href="#aZ"/>
        <use transform="matrix(0.04938271604938272,0,0,0.04938271604938272,20.24691358024692,0)" xlink:href="#aS"/>
        <use transform="matrix(0.04938271604938272,0,0,0.04938271604938272,29.135802469135804,0)" xlink:href="#aH"/>
        <use transform="matrix(0.04938271604938272,0,0,0.04938271604938272,39.012345679012356,0)" xlink:href="#aT"/>
        <use transform="matrix(0.04938271604938272,0,0,0.04938271604938272,44.8888888888889,0)" xlink:href="#bu"/>
        <use transform="matrix(0.04938271604938272,0,0,0.04938271604938272,49.82716049382717,0)" xlink:href="#bv"/>
        <use transform="matrix(0.04938271604938272,0,0,0.04938271604938272,62.6172839506173,0)" xlink:href="#bw"/>
        <use transform="matrix(0.04938271604938272,0,0,0.04938271604938272,72.49382716049385,0)" xlink:href="#bx"/>
        <use transform="matrix(0.04938271604938272,0,0,0.04938271604938272,83.30864197530866,0)" xlink:href="#by"/>
      </g>
      <g id="ab">
        <use transform="matrix(0.04938271604938272,0,0,0.04938271604938272,0,0)" xlink:href="#aK"/>
        <use transform="matrix(0.04938271604938272,0,0,0.04938271604938272,10.370370370370372,0)" xlink:href="#aS"/>
        <use transform="matrix(0.04938271604938272,0,0,0.04938271604938272,19.25925925925926,0)" xlink:href="#aZ"/>
        <use transform="matrix(0.04938271604938272,0,0,0.04938271604938272,29.135802469135804,0)" xlink:href="#be"/>
        <use transform="matrix(0.04938271604938272,0,0,0.04938271604938272,39.01234567901235,0)" xlink:href="#aX"/>
        <use transform="matrix(0.04938271604938272,0,0,0.04938271604938272,53.777777777777786,0)" xlink:href="#aL"/>
        <use transform="matrix(0.04938271604938272,0,0,0.04938271604938272,57.67901234567902,0)" xlink:href="#aS"/>
        <use transform="matrix(0.04938271604938272,0,0,0.04938271604938272,66.56790123456791,0)" xlink:href="#aS"/>
        <use transform="matrix(0.04938271604938272,0,0,0.04938271604938272,75.4567901234568,0)" xlink:href="#aL"/>
        <use transform="matrix(0.04938271604938272,0,0,0.04938271604938272,79.35802469135804,0)" xlink:href="#aO"/>
        <use transform="matrix(0.04938271604938272,0,0,0.04938271604938272,89.23456790123458,0)" xlink:href="#aI"/>
        <use transform="matrix(0.04938271604938272,0,0,0.04938271604938272,99.11111111111113,0)" xlink:href="#bb"/>
        <use transform="matrix(0.04938271604938272,0,0,0.04938271604938272,109.28395061728396,0)" xlink:href="#aL"/>
        <use transform="matrix(0.04938271604938272,0,0,0.04938271604938272,113.18518518518519,0)" xlink:href="#aX"/>
        <use transform="matrix(0.04938271604938272,0,0,0.04938271604938272,127.95061728395063,0)" xlink:href="#aH"/>
      </g>
      <g id="ac">
        <use transform="matrix(0.04938271604938272,0,0,0.04938271604938272,0,0)" xlink:href="#aK"/>
        <use transform="matrix(0.04938271604938272,0,0,0.04938271604938272,10.370370370370372,0)" xlink:href="#aS"/>
        <use transform="matrix(0.04938271604938272,0,0,0.04938271604938272,19.25925925925926,0)" xlink:href="#aZ"/>
        <use transform="matrix(0.04938271604938272,0,0,0.04938271604938272,29.135802469135804,0)" xlink:href="#be"/>
        <use transform="matrix(0.04938271604938272,0,0,0.04938271604938272,39.01234567901235,0)" xlink:href="#aX"/>
        <use transform="matrix(0.04938271604938272,0,0,0.04938271604938272,53.777777777777786,0)" xlink:href="#aL"/>
        <use transform="matrix(0.04938271604938272,0,0,0.04938271604938272,57.67901234567902,0)" xlink:href="#aS"/>
        <use transform="matrix(0.04938271604938272,0,0,0.04938271604938272,66.56790123456791,0)" xlink:href="#aS"/>
        <use transform="matrix(0.04938271604938272,0,0,0.04938271604938272,75.4567901234568,0)" xlink:href="#aL"/>
        <use transform="matrix(0.04938271604938272,0,0,0.04938271604938272,79.35802469135804,0)" xlink:href="#aO"/>
        <use transform="matrix(0.04938271604938272,0,0,0.04938271604938272,89.23456790123458,0)" xlink:href="#aI"/>
        <use transform="matrix(0.04938271604938272,0,0,0.04938271604938272,99.11111111111113,0)" xlink:href="#bv"/>
        <use transform="matrix(0.04938271604938272,0,0,0.04938271604938272,111.90123456790127,0)" xlink:href="#aQ"/>
        <use transform="matrix(0.04938271604938272,0,0,0.04938271604938272,121.77777777777781,0)" xlink:href="#aJ"/>
        <use transform="matrix(0.04938271604938272,0,0,0.04938271604938272,126.71604938271608,0)" xlink:href="#aH"/>
      </g>
      <path d="M141 0L90-78 38 0H4l68-98-65-92h35l48 74 47-74h35l-64 92 68 98h-35" id="bz"/>
      <g id="ad">
        <use transform="matrix(0.04938271604938272,0,0,0.04938271604938272,0,0)" xlink:href="#aK"/>
        <use transform="matrix(0.04938271604938272,0,0,0.04938271604938272,10.370370370370372,0)" xlink:href="#aS"/>
        <use transform="matrix(0.04938271604938272,0,0,0.04938271604938272,19.25925925925926,0)" xlink:href="#aN"/>
        <use transform="matrix(0.04938271604938272,0,0,0.04938271604938272,23.160493827160494,0)" xlink:href="#aO"/>
        <use transform="matrix(0.04938271604938272,0,0,0.04938271604938272,33.03703703703704,0)" xlink:href="#aU"/>
        <use transform="matrix(0.04938271604938272,0,0,0.04938271604938272,42.91358024691358,0)" xlink:href="#aQ"/>
        <use transform="matrix(0.04938271604938272,0,0,0.04938271604938272,52.79012345679013,0)" xlink:href="#aI"/>
        <use transform="matrix(0.04938271604938272,0,0,0.04938271604938272,62.66666666666667,0)" xlink:href="#bb"/>
        <use transform="matrix(0.04938271604938272,0,0,0.04938271604938272,71.50617283950618,0)" xlink:href="#aH"/>
        <use transform="matrix(0.04938271604938272,0,0,0.04938271604938272,81.38271604938272,0)" xlink:href="#bz"/>
        <use transform="matrix(0.04938271604938272,0,0,0.04938271604938272,90.27160493827161,0)" xlink:href="#aJ"/>
      </g>
      <path d="M18-100v-36l175-74v27L42-118l151 64v27" id="bA"/>
      <path d="M54-142c48-35 137-8 131 61C196 18 31 33 14-55l32-4c7 23 22 37 52 37 35-1 51-22 54-58 4-55-73-65-99-34H22l8-134h141v27H59"
            id="bB"/>
      <g id="ae">
        <use transform="matrix(0.04938271604938272,0,0,0.04938271604938272,0,0)" xlink:href="#bl"/>
        <use transform="matrix(0.04938271604938272,0,0,0.04938271604938272,5.8765432098765435,0)" xlink:href="#bA"/>
        <use transform="matrix(0.04938271604938272,0,0,0.04938271604938272,16.246913580246915,0)" xlink:href="#aV"/>
        <use transform="matrix(0.04938271604938272,0,0,0.04938271604938272,26.617283950617285,0)" xlink:href="#bB"/>
        <use transform="matrix(0.04938271604938272,0,0,0.04938271604938272,36.49382716049383,0)" xlink:href="#bg"/>
        <use transform="matrix(0.04938271604938272,0,0,0.04938271604938272,46.370370370370374,0)" xlink:href="#aP"/>
        <use transform="matrix(0.04938271604938272,0,0,0.04938271604938272,55.25925925925927,0)" xlink:href="#bp"/>
        <use transform="matrix(0.04938271604938272,0,0,0.04938271604938272,65.13580246913581,0)" xlink:href="#aQ"/>
        <use transform="matrix(0.04938271604938272,0,0,0.04938271604938272,75.01234567901236,0)" xlink:href="#aT"/>
        <use transform="matrix(0.04938271604938272,0,0,0.04938271604938272,80.8888888888889,0)" xlink:href="#aS"/>
        <use transform="matrix(0.04938271604938272,0,0,0.04938271604938272,89.77777777777779,0)" xlink:href="#bm"/>
      </g>
      <path d="M232-93c-1 65-40 97-104 97C67 4 28-28 28-90v-158h33c8 89-33 224 67 224 102 0 64-133 71-224h33v155"
            id="bC"/>
      <g id="af">
        <use transform="matrix(0.04938271604938272,0,0,0.04938271604938272,0,0)" xlink:href="#bC"/>
        <use transform="matrix(0.04938271604938272,0,0,0.04938271604938272,12.790123456790125,0)" xlink:href="#aS"/>
        <use transform="matrix(0.04938271604938272,0,0,0.04938271604938272,21.679012345679013,0)" xlink:href="#aH"/>
        <use transform="matrix(0.04938271604938272,0,0,0.04938271604938272,31.555555555555557,0)" xlink:href="#aT"/>
      </g>
      <g id="ah">
        <use transform="matrix(0.04938271604938272,0,0,0.04938271604938272,0,0)" xlink:href="#aK"/>
        <use transform="matrix(0.04938271604938272,0,0,0.04938271604938272,10.370370370370372,0)" xlink:href="#aH"/>
        <use transform="matrix(0.04938271604938272,0,0,0.04938271604938272,20.24691358024692,0)" xlink:href="#aX"/>
        <use transform="matrix(0.04938271604938272,0,0,0.04938271604938272,35.012345679012356,0)" xlink:href="#aQ"/>
        <use transform="matrix(0.04938271604938272,0,0,0.04938271604938272,44.8888888888889,0)" xlink:href="#aL"/>
        <use transform="matrix(0.04938271604938272,0,0,0.04938271604938272,48.790123456790134,0)" xlink:href="#aN"/>
      </g>
    </defs>
  </g>
</svg>